<svg xmlns="http://www.w3.org/2000/svg" width="383" height="157" baseProfile="tiny" version="1.2"><path fill="#ed0089" d="M187.66 95.18c.3-.97.83-1.8 1.59-2.47 2.21 8.78 4.82 15.94 7.81 21.48 7 12.94 17.47 23.22 31.42 30.84 10.85 5.93 22.27 9 34.27 9.22 26.31.49 47.96-9.49 64.93-29.93.66-.79 1-1.73 1.01-2.8l.37-25.47c.02-1.27-.23-1.33-.75-.17-1.05 2.35-2.16 4.9-3.31 7.66a54.026 54.026 0 0 1-8.49 13.98c-11.03 13.18-24.71 20.99-41.05 23.42-6.68.99-13.32.98-19.93-.03-12.56-1.93-23.59-7.13-33.09-15.6-16.57-14.76-23.32-33.61-20.23-56.56l.04-2.21c.51-.31.81-.77.9-1.36.86-5.25 2.62-10.19 5.27-14.8 12.66-22.02 31.19-33.47 55.58-34.34 7.01-.25 13.61.48 19.8 2.19 14.29 3.93 25.98 12.16 35.07 24.67 4.55 6.25 7.8 13.41 9.76 21.46.16.67.76 1.14 1.45 1.14h10.91c.65 0 1.14-.6 1.01-1.24-2.82-13.61-8.9-25.53-18.25-35.76-12.08-13.22-26.68-21.28-43.81-24.17-6.47-1.09-13.11-1.36-19.93-.81-21.14 1.69-38.98 10.68-53.53 26.96-9.27 10.37-14.93 22.44-16.98 36.23h-2.25c.65-5.75 1.98-11.07 4-15.96 7.47-18.07 19.95-31.67 37.44-40.81C239.56 4.25 250.99 1.27 263 1c13.31-.31 25.21 1.89 35.71 6.59 14.27 6.39 25.8 16.26 34.6 29.6 5.52 8.37 9.09 17.27 10.72 26.72.05.27.1 1.16.16 2.69.09 2.13 1.21 2.45 3.37.96 3.43-2.37 7.29-3.58 11.57-3.65 4.09-.05 7.88.83 11.39 2.64 4.24 2.19 7.23 5.51 8.96 9.96 1 2.57 1.55 6.79 1.64 12.67.19 11.53.23 23.26.12 35.2 0 .29-.23.54-.52.56-5.2.43-10.17.45-14.92.04a.52.52 0 0 1-.48-.54c.03-11.17-.04-22.34-.23-33.51-.08-4.37-.64-7.39-1.69-9.06-1.96-3.15-5.37-4.22-10.22-3.23-3.48.71-5.79 2.74-6.93 6.11-.82 2.42-1.22 5.84-1.21 10.25.03 9.85-.04 19.67-.23 29.44a.83.83 0 0 1-.83.81h-13c-.59 0-1.15.26-1.53.72-18.97 23.11-43.79 33.02-74.45 29.73-11.37-1.22-21.76-4.75-31.18-10.58a89.072 89.072 0 0 1-15.68-12.35c-10.36-10.19-17.19-22.72-20.48-37.59zm138.62-18.695c-1.2-32.575-29.21-57.995-62.583-56.775-33.367 1.22-59.447 28.63-58.256 61.206 1.199 32.574 29.209 57.994 62.582 56.774 33.367-1.22 59.447-28.63 58.256-61.205z"/><path fill="#ed0089" d="M314.064 76.798c1.006 26.052-19.774 48.002-46.392 49.027-26.622 1.025-49.012-19.265-50.016-45.323C216.65 54.45 237.43 32.5 264.048 31.475c26.622-1.025 49.012 19.265 50.016 45.323zM300.6 78.55c0-19.16-15.54-34.7-34.7-34.7-19.16 0-34.7 15.54-34.7 34.7 0 19.16 15.54 34.7 34.7 34.7 19.16 0 34.7-15.54 34.7-34.7z"/><path fill="#01417b" d="m15.33 119.35.17 35.14c0 .28-.23.51-.52.51H2c-.28 0-.5-.22-.5-.5V67.69c0-.52.44-.95.98-.96l11.95-.14c.31-.01.59.17.69.44.57 1.56.7 2.9.39 4.03-.53 1.91-.06 2.2 1.42.89 3.38-3.01 7.16-5.01 11.35-5.99 3.86-.9 8.01-.9 12.44 0C49.81 67.82 56.41 73.17 60.5 82c2.83 6.09 3.58 12.84 2.25 20.25-.99 5.55-3.37 10.31-7.12 14.28-3.58 3.79-7.94 6.4-13.09 7.85-8.83 2.49-17.46.59-25.91-5.7-.87-.65-1.31-.42-1.3.67zm16.598-5.61c9.522-.07 17.192-8.34 17.122-18.47-.07-10.13-7.85-18.3-17.378-18.23-9.522.07-17.192 8.34-17.122 18.47.07 10.13 7.85 18.3 17.378 18.23zM116.8 119.36c-.05-.81-.41-.96-1.1-.47-8.89 6.38-17.81 8.11-26.74 5.18-5.66-1.85-10.23-5.04-13.7-9.55-3.53-4.6-5.54-10.11-6.01-16.52-.58-7.85 1.08-14.6 4.97-20.27 3.87-5.63 9.15-9.43 15.82-11.39 8.8-2.59 17.48-.51 26.03 6.22.63.5.95.34.96-.48l.02-4.54c0-.44.37-.79.83-.79h12.62c.28 0 .5.22.5.5l-.06 56.19c0 .27-.22.49-.5.49h-12.88c-.26 0-.48-.21-.5-.49l-.26-4.08zm-16.062-5.58c9.552-.07 17.242-8.34 17.172-18.48-.07-10.14-7.87-18.31-17.428-18.24-9.552.07-17.242 8.34-17.172 18.48.07 10.14 7.87 18.31 17.428 18.24zM187.25 66.71h2.25l12.75-.17-.04 2.21c-4.93 7.65-9.25 15.64-12.96 23.96a5.34 5.34 0 0 0-1.59 2.47l-32.11 59.41a.91.91 0 0 1-.81.48l-14.36-.07c-.41 0-.66-.44-.46-.79l22.71-40.49c.17-.31.17-.69-.01-1l-26.14-45.23c-.35-.6-.17-.9.54-.89l13.5.13c.93.01 1.76.49 2.19 1.27l16.96 30.69c.38.69.75.68 1.11-.02l16.47-31.96z"/></svg>